<svg id="Layer_1" enable-background="new 0 0 256 256" height="512" viewBox="0 0 256 256" width="512" xmlns="http://www.w3.org/2000/svg"><path d="m52.449 81.849c-.654-.001-1.256-.357-1.569-.931l-4.669-8.543-8.545-4.671c-.574-.314-.931-.915-.931-1.57 0-.654.357-1.256.931-1.57l8.545-4.671 4.669-8.542c.313-.574.915-.931 1.569-.931.654 0 1.255.356 1.569.93l4.675 8.544 8.539 4.672c.574.313.931.916.931 1.569 0 .654-.357 1.256-.931 1.569l-8.539 4.672-4.675 8.544c-.313.572-.915.929-1.569.929z" fill="#b8dff4"/><path d="m52.45 52.208 4.927 9.003 8.999 4.923-8.999 4.923-4.927 9.003-4.92-9.003-9.006-4.923 9.006-4.923zm0-3.578c-.001 0-.001 0 0 0-1.309 0-2.513.714-3.14 1.862l-4.417 8.083-8.085 4.419c-1.148.628-1.862 1.832-1.862 3.14s.714 2.512 1.862 3.14l8.085 4.42 4.417 8.082c.627 1.148 1.83 1.862 3.139 1.862h.001c1.308 0 2.511-.713 3.139-1.86l4.424-8.084 8.08-4.42c1.147-.628 1.861-1.832 1.861-3.139 0-1.308-.713-2.511-1.861-3.139l-8.08-4.42-4.424-8.084c-.628-1.149-1.832-1.862-3.139-1.862z" fill="#24202b"/><path d="m148.165 60.758c-.653 0-1.255-.356-1.569-.93l-3.556-6.493-6.489-3.548c-.573-.314-.931-.916-.931-1.57s.356-1.256.931-1.569l6.489-3.55 3.556-6.492c.314-.573.916-.93 1.569-.93h.001c.653 0 1.255.357 1.569.931l3.547 6.491 6.488 3.549c.574.313.931.916.931 1.569 0 .654-.357 1.256-.931 1.57l-6.488 3.547-3.547 6.492c-.314.574-.916.931-1.569.931h-.001z" fill="#b8dff4"/><path d="m148.165 37.466 3.799 6.951 6.948 3.801-6.948 3.799-3.799 6.952-3.808-6.952-6.948-3.799 6.948-3.801zm0-3.578c-1.307 0-2.51.713-3.138 1.859l-3.306 6.033-6.029 3.298c-1.148.628-1.861 1.832-1.861 3.14s.714 2.511 1.861 3.139l6.03 3.297 3.305 6.033c.627 1.146 1.831 1.859 3.138 1.859h.002c1.308-.001 2.511-.715 3.138-1.862l3.296-6.031 6.028-3.296c1.148-.627 1.861-1.831 1.861-3.139s-.714-2.512-1.861-3.14l-6.028-3.297-3.296-6.031c-.627-1.147-1.83-1.862-3.138-1.862-.001 0-.002 0-.002 0z" fill="#24202b"/><path d="m49.31 128.066v93.533c0 4.394 3.567 7.957 7.958 7.957h123.14c4.398 0 7.957-3.563 7.957-7.957v-93.533z" fill="#eee"/><path d="m188.364 128.066h-116.86-22.194v10.879 82.654c0 4.394 3.567 7.957 7.958 7.957h14.237v-90.611h116.86v-10.879z" fill="#c2cbe8"/><path d="m34.203 128.066c-4.379 0-5.02-2.048-1.434-4.554l79.541-55.498c3.59-2.506 9.465-2.506 13.054 0l79.545 55.498c3.582 2.506 2.945 4.554-1.438 4.554z" fill="#7fd57a"/><path d="m58.612 123.512 73.148-51.037-6.396-4.46c-3.589-2.506-9.464-2.506-13.054 0l-79.541 55.498c-3.586 2.506-2.945 4.554 1.434 4.554h25.839c-4.376-.001-5.02-2.049-1.43-4.555z" fill="#1d966a"/><path d="m173.537 229.525v-37.534c0-11.537-9.356-20.889-20.889-20.889-11.54 0-20.889 9.352-20.889 20.889v37.534z" fill="#ff8b38"/><path d="m175.326 231.314h-45.355v-39.323c0-12.504 10.173-22.678 22.678-22.678s22.678 10.173 22.678 22.678v39.323zm-41.777-3.578h38.199v-35.745c0-10.532-8.568-19.1-19.1-19.1s-19.1 8.568-19.1 19.1v35.745z" fill="#24202b"/><path d="m109.932 200.314c4.399 0 7.958-3.562 7.958-7.958v-7.745l-10.817 15.702h2.859z" fill="#14a2ff"/><path d="m117.89 192.356c0 4.395-3.559 7.958-7.958 7.958h-38.428c-4.39 0-7.957-3.562-7.957-7.958v-38.428c0-4.394 3.567-7.958 7.957-7.958h38.428c4.399 0 7.958 3.564 7.958 7.958z" fill="#14a2ff"/><path d="m117.89 153.928c0-4.394-3.559-7.958-7.958-7.958h-12.06l-34.014 48.457c.917 3.384 3.975 5.886 7.646 5.886h22.171l24.214-35.561v-10.824z" fill="#14a2ff"/><path d="m71.504 145.97c-4.39 0-7.957 3.564-7.957 7.958v25.427l23.671-33.384h-15.714z" fill="#14a2ff"/><path d="m93.675 200.314h13.397l10.818-15.703v-19.858z" fill="#b8dff4"/><path d="m87.218 145.97-23.671 33.384v13.001c0 .722.127 1.407.311 2.071l34.014-48.457h-10.654z" fill="#b8dff4"/><g fill="#24202b"><path d="m109.932 202.103h-38.428c-5.374 0-9.746-4.373-9.746-9.747v-38.428c0-5.374 4.372-9.747 9.746-9.747h38.428c5.375 0 9.747 4.373 9.747 9.747v38.428c0 5.374-4.373 9.747-9.747 9.747zm-38.428-54.344c-3.401 0-6.168 2.767-6.168 6.168v38.428c0 3.401 2.767 6.168 6.168 6.168h38.428c3.401 0 6.169-2.767 6.169-6.168v-38.428c0-3.401-2.768-6.168-6.169-6.168z"/><path d="m117.89 174.931h-54.343c-.988 0-1.789-.801-1.789-1.789s.801-1.789 1.789-1.789h54.343c.988 0 1.789.801 1.789 1.789s-.802 1.789-1.789 1.789z"/><path d="m90.722 202.103c-.988 0-1.789-.801-1.789-1.789v-54.344c0-.988.801-1.789 1.789-1.789s1.789.801 1.789 1.789v54.343c0 .988-.801 1.79-1.789 1.79z"/><path d="m180.407 231.345h-123.14c-5.374 0-9.747-4.372-9.747-9.746v-93.533c0-.988.801-1.789 1.789-1.789h139.055c.988 0 1.789.801 1.789 1.789v93.533c0 5.374-4.372 9.746-9.746 9.746zm-129.308-101.49v91.744c0 3.401 2.767 6.168 6.168 6.168h123.14c3.401 0 6.168-2.767 6.168-6.168v-91.744z"/><path d="m188.364 129.855h-154.161c-3.798 0-5.039-1.408-5.41-2.589s-.161-3.045 2.952-5.221l79.542-55.499c4.234-2.956 10.868-2.955 15.102 0l6.403 4.472c.81.566 1.008 1.681.442 2.491-.564.809-1.679 1.009-2.491.442l-6.403-4.472c-2.981-2.082-8.022-2.081-11.005 0l-79.542 55.498c-.67.468-1.076.854-1.307 1.125.344.089.898.173 1.717.173h154.162c.988 0 1.789.801 1.789 1.789s-.801 1.791-1.79 1.791z"/><path d="m164.009 207.441c-.988 0-1.789-.801-1.789-1.789v-5.339c0-.988.801-1.789 1.789-1.789s1.789.801 1.789 1.789v5.339c0 .988-.801 1.789-1.789 1.789z"/></g><path d="m178.79 108.118s-.225-.094-.333-.155c-.109-.055-.319-.183-.319-.183-12.434-6.699-17.641-19.409-17.641-19.409l13.071-11.691 16.218 8.284.661.334 16.226 8.288-1.818 17.442c-.001-.001-13.343 3.236-26.065-2.91z" fill="#ffdc00"/><path d="m178.79 108.118s-.225-.094-.333-.155c-.109-.055-.319-.183-.319-.183-12.434-6.699-17.641-19.409-17.641-19.409l13.071-11.691 16.218 8.284.661.334 16.226 8.288-1.818 17.442c-.001-.001-13.343 3.236-26.065-2.91z" fill="#ffdc00"/><path d="m183.399 109.947c-1.531-.489-3.07-1.088-4.609-1.83 0 0-.225-.094-.333-.155-.109-.055-.319-.183-.319-.183-12.434-6.699-17.641-19.409-17.641-19.409l13.071-11.691 9.45 4.822-13.071 11.692s4.025 9.827 13.452 16.754z" fill="#e0bb07"/><path d="m191.278 85.775-2.486-1.27-19.475-9.951 4.693-9.19s9.458-7.907 18.83-3.12l14.229-32.296s2.045-5.813 10.849-2.464c0 0 .902.312 1.299.541.41.185 1.188.73 1.188.73 7.879 5.171 4.366 10.238 4.366 10.238l-17.826 30.456c9.372 4.786 8.502 17.081 8.502 17.081l-4.693 9.192z" fill="#ff8b38"/><path d="m214.747 33.868-14.229 32.301c-9.372-4.787-18.83 3.12-18.83 3.12l-4.693 9.189-7.678-3.924 4.693-9.19s9.458-7.907 18.83-3.12l14.229-32.296s2.045-5.813 10.849-2.464c0 0 .902.312 1.299.541.41.185 1.188.73 1.188.73.939.613 1.701 1.228 2.339 1.826-6.404-1.22-7.997 3.287-7.997 3.287z" fill="#e57225"/><path d="m196.198 113.681c-5.074 0-11.664-.808-18.161-3.94-.11-.049-.336-.15-.463-.223-.075-.035-.367-.211-.367-.211-12.768-6.876-18.143-19.715-18.365-20.258-.287-.701-.102-1.507.463-2.012l13.071-11.691c.55-.493 1.35-.595 2.006-.26l33.104 16.906c.659.336 1.043 1.043.966 1.779l-1.818 17.442c-.078.753-.622 1.375-1.357 1.553-.289.07-3.89.915-9.079.915zm-33.518-24.862c1.571 3.163 6.722 12.222 16.307 17.385.088.051.208.125.281.164.112.059.204.096.213.1.029.012.06.026.088.04 9.839 4.753 20.166 3.604 23.645 3.018l1.554-14.905-30.92-15.79z" fill="#24202b"/><path d="m210.754 97.511c-.28 0-.56-.066-.813-.196l-19.476-9.946-21.962-11.221c-.879-.45-1.229-1.527-.778-2.407l4.693-9.19c.109-.214.261-.405.445-.559.399-.334 9.387-7.707 19.061-4.103l13.489-30.618c.194-.5 1.148-2.622 3.732-3.821 2.527-1.172 5.694-1.051 9.408.363.188.064.97.342 1.481.621.514.249 1.191.714 1.396.856 3.281 2.153 5.237 4.647 5.769 7.383.544 2.798-.616 4.814-.908 5.266l-16.899 28.873c8.589 5.727 7.877 17.325 7.84 17.845-.017.239-.082.473-.19.687l-4.693 9.192c-.216.423-.591.742-1.042.889-.182.057-.368.086-.553.086zm-18.662-13.329 17.883 9.132 3.7-7.247c.036-1.893-.17-11.26-7.543-15.025-.438-.224-.766-.619-.903-1.091-.139-.473-.076-.981.173-1.406l17.826-30.456c.023-.04.048-.078.073-.115.227-.352 2.171-3.754-3.877-7.724-.379-.264-.809-.534-.944-.596-.053-.024-.108-.053-.159-.082-.142-.082-.646-.281-.986-.398-2.792-1.061-5.083-1.221-6.683-.48-1.424.661-1.891 1.835-1.895 1.847-.015.043-.032.085-.051.127l-14.229 32.296c-.198.451-.573.799-1.037.964-.464.166-.976.131-1.413-.092-7.371-3.764-15.084 1.549-16.604 2.693l-3.699 7.244z" fill="#24202b"/><path d="m169.015 100.721c-.48 0-.96-.193-1.312-.573-.671-.725-.628-1.856.097-2.528l15.542-14.4c.723-.671 1.856-.629 2.528.097.671.725.628 1.856-.097 2.528l-15.542 14.4c-.344.318-.781.476-1.216.476z" fill="#24202b"/><path d="m191.312 111.737c-.11 0-.222-.01-.334-.032-.971-.184-1.609-1.119-1.426-2.09l3.722-19.688c.184-.971 1.119-1.613 2.09-1.425.971.184 1.609 1.119 1.426 2.09l-3.722 19.688c-.163.858-.914 1.457-1.756 1.457z" fill="#24202b"/></svg>